<svg width="737" height="269" viewBox="0 0 737 269" fill="none" xmlns="http://www.w3.org/2000/svg">
<path d="M691.747 0.772959C692.708 0.77311 693.668 0.773261 694.658 0.773416C695.693 0.783739 696.727 0.794061 697.793 0.804697C698.854 0.807527 699.915 0.810357 701.009 0.813272C704.402 0.824477 707.795 0.849583 711.188 0.875009C713.486 0.885039 715.785 0.894165 718.084 0.902353C723.723 0.924418 729.361 0.957899 735 1.00001C735.99 2.98001 735.99 2.98001 737 5.00001C733.092 10.8613 729.185 16.7227 725.277 22.584C724.909 23.1372 724.54 23.6905 724.16 24.2605C723.586 25.1216 723.586 25.1216 723 26C722.599 26.6011 722.199 27.2022 721.786 27.8215C718.359 32.9619 714.932 38.1022 711.505 43.2425C711.101 43.8478 710.698 44.4531 710.282 45.0767C707.442 49.3363 704.603 53.596 701.763 57.8556C700.932 59.1024 700.101 60.3492 699.269 61.5961C698.43 62.8547 697.591 64.1132 696.752 65.3717C694.723 68.4131 692.697 71.4555 690.675 74.501C685.741 81.927 680.758 89.3185 675.75 96.6953C673.822 99.5396 671.893 102.384 669.965 105.229C668.642 107.178 667.318 109.127 665.992 111.075C664.053 113.925 662.12 116.778 660.188 119.633C659.595 120.501 659.002 121.368 658.392 122.262C657.843 123.074 657.295 123.886 656.73 124.723C656.25 125.431 655.769 126.138 655.274 126.867C653.865 129.226 652.777 131.359 652 134C653.384 136.776 654.761 139.033 656.539 141.539C657.577 143.069 658.615 144.599 659.653 146.13C660.204 146.929 660.756 147.728 661.323 148.551C663.52 151.76 665.644 155.014 667.768 158.271C670.621 162.649 673.5 167.011 676.375 171.375C676.991 172.311 677.608 173.248 678.243 174.212C689.07 190.652 700.036 206.995 711.105 223.273C718.207 233.736 725.079 244.317 731.761 255.054C732.915 256.867 734.122 258.631 735.35 260.395C737 263 737 263 736.812 265.312C736 267 736 267 735 268C733.431 268.114 731.857 268.16 730.284 268.177C729.279 268.19 728.274 268.203 727.239 268.216C726.144 268.223 725.05 268.231 723.922 268.238C722.803 268.246 721.684 268.254 720.532 268.263C718.158 268.277 715.784 268.287 713.41 268.295C709.779 268.312 706.15 268.356 702.52 268.4C700.216 268.411 697.913 268.419 695.609 268.426C694.523 268.443 693.436 268.461 692.317 268.479C684.768 268.457 684.768 268.457 680.902 266.157C678.507 263.44 676.633 260.551 674.812 257.438C670.416 250.182 665.79 243.106 661.062 236.063C655.317 227.493 649.607 218.901 643.938 210.281C643.329 209.356 642.721 208.431 642.094 207.478C639.641 203.747 637.188 200.016 634.738 196.283C633.015 193.658 631.291 191.034 629.566 188.41C629.048 187.62 628.53 186.829 627.997 186.015C627.514 185.28 627.031 184.546 626.533 183.789C626.115 183.151 625.696 182.513 625.265 181.856C624.34 180.498 623.356 179.18 622.342 177.888C621 176 621 176 621 174C618.296 176.583 616.085 179.135 614.039 182.262C613.492 183.093 612.944 183.924 612.38 184.78C611.801 185.668 611.222 186.557 610.625 187.473C609.38 189.36 608.136 191.247 606.891 193.135C604.94 196.105 602.991 199.076 601.045 202.049C599.161 204.923 597.268 207.792 595.375 210.66C594.796 211.551 594.216 212.442 593.62 213.359C593.072 214.187 592.525 215.015 591.961 215.867C591.484 216.595 591.008 217.322 590.517 218.072C588.257 220.945 586.383 222.783 582.697 223.361C581.853 223.354 581.009 223.347 580.14 223.341C579.179 223.34 578.218 223.34 577.228 223.34C576.199 223.324 575.17 223.309 574.109 223.293C572.52 223.287 572.52 223.287 570.898 223.28C567.515 223.263 564.133 223.226 560.75 223.188C558.456 223.172 556.161 223.159 553.867 223.146C548.245 223.113 542.622 223.063 537 223C536.191 220.205 535.739 218.612 536.9 215.887C537.381 215.189 537.862 214.49 538.358 213.771C538.9 212.968 539.442 212.166 540 211.339C540.602 210.481 541.204 209.623 541.824 208.738C542.441 207.834 543.057 206.929 543.693 205.997C545.677 203.092 547.682 200.202 549.688 197.313C550.989 195.417 552.289 193.521 553.588 191.623C556.154 187.875 558.728 184.132 561.305 180.392C566.193 173.28 570.965 166.092 575.736 158.9C577.532 156.2 579.347 153.511 581.164 150.824C581.748 149.957 582.332 149.09 582.934 148.197C584.097 146.471 585.264 144.747 586.434 143.025C587.005 142.175 587.576 141.325 588.164 140.449C588.914 139.341 588.914 139.341 589.678 138.21C591.107 135.821 592.226 133.679 593 131C591.481 128.365 590.024 126.27 588.125 123.938C587.084 122.593 586.045 121.246 585.008 119.898C584.491 119.236 583.975 118.573 583.442 117.89C581.508 115.356 579.746 112.729 578 110.063C575.046 105.571 572.047 101.116 569 96.6875C568.543 96.0236 568.086 95.3598 567.616 94.6758C564.222 89.7531 560.804 84.8472 557.384 79.9429C550.199 69.64 543.081 59.2956 536.043 48.8921C532.893 44.2376 529.732 39.5953 526.484 35.0078C525.963 34.2678 525.442 33.5278 524.906 32.7654C523.96 31.4273 523.007 30.0943 522.046 28.7678C519.711 25.453 519 24.1967 519 20C521.46 18.77 523.154 18.8331 525.905 18.7754C526.927 18.7529 527.948 18.7304 529.001 18.7072C533.68 18.6362 538.359 18.5786 543.038 18.54C545.506 18.5134 547.973 18.4725 550.44 18.417C553.997 18.3379 557.552 18.3047 561.109 18.2813C562.21 18.2483 563.31 18.2153 564.443 18.1813C571.935 18.2008 571.935 18.2008 574.988 20.4913C576.528 22.2579 577.777 24.0046 579 26C579.77 27.1006 580.542 28.1999 581.316 29.2969C582.069 30.4451 582.818 31.5963 583.562 32.75C584.435 34.0788 585.309 35.4069 586.184 36.7344C586.87 37.7776 586.87 37.7776 587.57 38.8418C596.309 52.0295 605.428 64.9719 614.469 77.9531C615.072 78.82 615.675 79.6869 616.297 80.5801C617.828 82.7561 619.393 84.9027 620.969 87.0469C623 90 623 90 623 92C627.293 88.2076 630.142 83.5034 633.25 78.75C634.501 76.8554 635.752 74.9609 637.004 73.0664C637.656 72.0753 638.309 71.0842 638.981 70.063C642.367 64.9268 645.776 59.8067 649.188 54.6875C650.207 53.1566 650.207 53.1566 651.247 51.5947C655.365 45.4207 659.526 39.2804 663.76 33.1858C666.603 29.0783 669.377 24.9292 672.125 20.7578C672.848 19.6634 673.57 18.569 674.314 17.4414C675.75 15.2624 677.182 13.0802 678.607 10.8945C679.263 9.90067 679.918 8.90681 680.594 7.88282C681.178 6.98966 681.763 6.0965 682.365 5.17628C685.14 1.48196 687.321 0.749725 691.747 0.772959Z" fill="#B7DF4B"/>
<path d="M68 58C86.3333 58 100.833 62.75 111.5 72.25C122.167 81.5833 127.5 94.5833 127.5 111.25C127.5 128.083 122.167 141.167 111.5 150.5C100.833 159.833 86.3333 164.5 68 164.5H34.75V223H0V58H68ZM62.75 137.25C72.5833 137.25 79.9167 135.083 84.75 130.75C89.5833 126.417 92 119.917 92 111.25C92 102.583 89.5833 96.0833 84.75 91.75C79.9167 87.4167 72.5833 85.25 62.75 85.25H34.75V137.25H62.75Z" fill="url(#paint0_linear_3_36)"/>
<path d="M188.703 43.5V184.25C188.703 189.583 189.536 193.583 191.203 196.25C192.87 198.917 196.036 200.25 200.703 200.25C203.203 200.25 205.286 200.083 206.953 199.75C208.786 199.417 210.87 198.75 213.203 197.75L210.703 220.25C208.036 221.75 204.536 223 200.203 224C195.87 225 191.786 225.5 187.953 225.5C175.12 225.5 166.286 222.167 161.453 215.5C156.62 208.833 154.203 199.667 154.203 188V43.5H188.703Z" fill="url(#paint1_linear_3_36)"/>
<path d="M301.107 143C301.107 136 299.191 130.5 295.357 126.5C291.691 122.333 286.607 120.25 280.107 120.25C273.774 120.25 268.357 121.833 263.857 125C259.357 128.167 256.107 133.5 254.107 141L225.107 132.25C227.774 121.083 233.857 112.167 243.357 105.5C252.857 98.8333 265.691 95.5 281.857 95.5C292.857 95.5 302.357 97.25 310.357 100.75C318.357 104.083 324.524 109.167 328.857 116C333.357 122.833 335.607 131.333 335.607 141.5V192.25C335.607 198.75 338.524 202 344.357 202C345.691 202 347.024 201.917 348.357 201.75C349.857 201.583 351.107 201.333 352.107 201L350.107 222C348.107 223 345.774 223.75 343.107 224.25C340.441 224.75 337.357 225 333.857 225C328.191 225 323.024 224.083 318.357 222.25C313.857 220.25 310.274 217.25 307.607 213.25C305.107 209.083 303.857 203.833 303.857 197.5V195.5L308.607 194.5C307.941 201.333 305.441 207.083 301.107 211.75C296.774 216.417 291.441 219.917 285.107 222.25C278.774 224.417 272.107 225.5 265.107 225.5C253.107 225.5 243.274 222.583 235.607 216.75C228.107 210.917 224.357 202.417 224.357 191.25C224.357 182.417 227.107 175 232.607 169C238.107 163 246.524 158.833 257.857 156.5L304.857 146.5V166.75L276.107 172.75C270.441 173.917 266.107 175.667 263.107 178C260.107 180.333 258.607 183.75 258.607 188.25C258.607 192.583 260.107 195.917 263.107 198.25C266.274 200.583 270.274 201.75 275.107 201.75C278.441 201.75 281.691 201.333 284.857 200.5C288.024 199.5 290.774 198 293.107 196C295.607 193.833 297.524 191.25 298.857 188.25C300.357 185.083 301.107 181.333 301.107 177V143Z" fill="url(#paint2_linear_3_36)"/>
<path d="M371.262 223V98H402.012L404.012 136.25L400.012 132.25C402.845 120.083 408.262 110.917 416.262 104.75C424.262 98.5833 433.928 95.5 445.262 95.5C453.762 95.5 461.262 97.25 467.762 100.75C474.262 104.083 479.345 109.083 483.012 115.75C486.845 122.417 488.762 130.75 488.762 140.75V223H454.262V150.25C454.262 140.083 452.262 132.917 448.262 128.75C444.262 124.583 439.095 122.5 432.762 122.5C428.262 122.5 423.928 123.667 419.762 126C415.595 128.167 412.178 131.75 409.512 136.75C407.012 141.75 405.762 148.25 405.762 156.25V223H371.262Z" fill="url(#paint3_linear_3_36)"/>
<defs>
<linearGradient id="paint0_linear_3_36" x1="242.5" y1="-7" x2="242.5" y2="245.02" gradientUnits="userSpaceOnUse">
<stop offset="0.7" stop-color="#6419E6"/>
</linearGradient>
<linearGradient id="paint1_linear_3_36" x1="242.5" y1="-7" x2="242.5" y2="245.02" gradientUnits="userSpaceOnUse">
<stop offset="0.7" stop-color="#6419E6"/>
</linearGradient>
<linearGradient id="paint2_linear_3_36" x1="242.5" y1="-7" x2="242.5" y2="245.02" gradientUnits="userSpaceOnUse">
<stop offset="0.7" stop-color="#6419E6"/>
</linearGradient>
<linearGradient id="paint3_linear_3_36" x1="242.5" y1="-7" x2="242.5" y2="245.02" gradientUnits="userSpaceOnUse">
<stop offset="0.7" stop-color="#6419E6"/>
</linearGradient>
</defs>
</svg>
